<svg width="22" height="18" viewBox="0 0 22 18" fill="none" xmlns="http://www.w3.org/2000/svg"><path d="M3.855 6.068l-1.68 1.226-1.524-2.43L5.957.932h0A2.36 2.36 0 018.183.584a2.397 2.397 0 011.522 1.684l2.1 8.397.001.007.003.007a.333.333 0 00.263.204h0a.33.33 0 00.329-.137l2.667-3.665s0 0 0 0a.997.997 0 00.101-1.013h0a.98.98 0 00-.83-.578l-2.29-.16.202-.627s0 0 0 0a8.52 8.52 0 011.108-2.128h0C14.398 1.12 15.74.278 17.24.123c.975-.1 1.859.133 2.561.67a3.651 3.651 0 011.147 1.513l.093-.037-.093.037c.325.811.409 1.729.24 2.654h0a5.996 5.996 0 01-1.057 2.43l-6.56 9.012c-.7.962-1.756 1.498-2.9 1.498a3.77 3.77 0 01-.567-.043c-1.358-.207-2.437-1.113-2.889-2.425l-.095.033.095-.033-3.206-9.316-.044-.128-.11.08zm.622-1.724l3.7 10.749h0a2.583 2.583 0 002.079 1.744 2.565 2.565 0 002.496-1.047h0l6.56-9.012c.923-1.267 1.194-2.832.692-4.084h0a2.64 2.64 0 00-.71-.996c-.42-.361-1.047-.643-1.95-.55-2.1.218-3.292 2.065-3.806 3.115l-.066.133.149.01.786.056h0a1.98 1.98 0 011.685 1.172 2.023 2.023 0 01-.205 2.058l-2.668 3.666a1.35 1.35 0 01-1.299.545 1.361 1.361 0 01-1.082-.909h0l-.008-.02L8.717 2.52h0a1.356 1.356 0 00-.872-.964 1.337 1.337 0 00-1.278.2l-.006.005h0L2.095 5.072l-.074.055.05.078.327.523.057.091.087-.063 1.934-1.411z" fill="#fff" stroke="#000" stroke-width=".2"/></svg>