<svg width="20" height="19" viewBox="0 0 20 19" fill="none" xmlns="http://www.w3.org/2000/svg"><path d="M5.778.266A65.141 65.141 0 019.947.15h0c1.477-.003 2.84.035 4.166.116 1.189.072 2.27.486 3.13 1.192l.096-.116-.096.116c.828.68 1.396 1.6 1.685 2.741.253.999.267 1.981.28 2.95.01.693.02 1.515.022 2.35V9.5c-.002.835-.012 1.657-.022 2.35-.013.969-.027 1.951-.28 2.95l.146.037-.146-.037c-.29 1.141-.857 2.061-1.685 2.741l.096.116-.096-.116c-.86.706-1.941 1.12-3.13 1.192-1.27.078-2.574.116-3.982.116h-.187 0a64.97 64.97 0 01-4.166-.116c-1.19-.073-2.271-.486-3.13-1.192-.829-.68-1.396-1.6-1.686-2.741-.253-.999-.267-1.981-.28-2.95h0c-.01-.693-.02-1.514-.021-2.35.002-.838.012-1.659.021-2.352h0c.013-.969.027-1.951.28-2.95.29-1.141.857-2.061 1.685-2.741C3.507.752 4.59.338 5.777.266zm0 0l-.01-.15.01.15zm4.165 17.4a64 64 0 004.098-.114c.95-.058 1.78-.37 2.461-.928l-.095-.116.095.116c.633-.52 1.065-1.235 1.289-2.117.219-.864.231-1.79.243-2.663v-.01c.01-.688.02-1.505.021-2.334h0a221 221 0 00-.02-2.335v-.009c-.013-.874-.025-1.799-.244-2.664l-.146.037.146-.037c-.224-.881-.656-1.596-1.289-2.116h0c-.68-.559-1.51-.87-2.46-.928m-4.1 16.217a63.746 63.746 0 01-4.094-.113c-.95-.058-1.78-.37-2.46-.928h0c-.634-.52-1.066-1.235-1.29-2.117-.218-.864-.23-1.79-.243-2.663v-.01c-.01-.689-.02-1.506-.021-2.332h0c.002-.83.012-1.647.021-2.337v-.009c.012-.874.025-1.799.244-2.664h0c.223-.881.655-1.596 1.288-2.116h0c.681-.559 1.511-.87 2.461-.928m4.094 16.217s0 0 0 0v-.15.15zM5.85 1.448l.01.15m-.01-.15l.01.15m-.01-.15c1.301-.08 2.64-.117 4.098-.114m-4.089.264c-.921.056-1.72.357-2.375.894-.604.497-1.021 1.182-1.238 2.037-.215.848-.227 1.758-.239 2.638-.01.69-.019 1.506-.021 2.335l3.873-7.904zm4.089-.264a64.121 64.121 0 014.095.114m-4.095-.114s0 0 0 0v.15m0-.15s0 0 0 0v.15m4.095-.036l-.01.15m.01-.15s0 0 0 0l-.01.15m0 0a63.97 63.97 0 00-4.085-.114m4.085.114c.922.056 1.72.357 2.375.894l-6.46-1.008m-.04 12.506c-2.456 0-4.457-2.013-4.457-4.489s2.001-4.489 4.457-4.489c2.457 0 4.457 2.013 4.457 4.489s-2 4.489-4.457 4.489zm0-7.793c-1.81 0-3.282 1.483-3.282 3.304 0 1.821 1.471 3.304 3.282 3.304 1.812 0 3.283-1.483 3.283-3.304 0-1.821-1.472-3.304-3.283-3.304zm4.168-1.706a.96.96 0 01.955-.963.96.96 0 01.956.963.96.96 0 01-.956.963.96.96 0 01-.956-.963z" fill="#fff" stroke="#000" stroke-width=".3"/></svg>