<svg width="19" height="19" viewBox="0 0 19 19" fill="none" xmlns="http://www.w3.org/2000/svg"><path d="M9.113 0C6.64 0 6.328.011 5.356.056c-.97.046-1.632.202-2.212.432-.6.238-1.108.556-1.614 1.073A4.579 4.579 0 00.478 3.21C.252 3.8.098 4.478.055 5.468.01 6.46 0 6.778 0 9.305s.011 2.843.055 3.835c.045.99.198 1.667.423 2.259a4.57 4.57 0 001.051 1.648 4.455 4.455 0 001.614 1.074c.58.23 1.242.387 2.212.432.972.045 1.283.056 3.757.056 2.475 0 2.785-.01 3.757-.056.97-.045 1.633-.202 2.213-.432a4.451 4.451 0 001.613-1.074 4.578 4.578 0 001.052-1.648c.224-.592.378-1.268.423-2.258.044-.993.055-1.31.055-3.836 0-2.527-.011-2.844-.055-3.837-.046-.99-.2-1.667-.423-2.258a4.578 4.578 0 00-1.052-1.649A4.445 4.445 0 0015.08.488c-.58-.23-1.243-.386-2.213-.432C11.896.011 11.586 0 9.11 0h.002zm-.817 1.677h.817c2.434 0 2.722.009 3.683.053.888.042 1.37.193 1.692.32.425.17.728.371 1.047.697.319.325.516.635.682 1.07.124.327.273.82.314 1.727.043.98.053 1.275.053 3.759 0 2.483-.01 2.777-.053 3.758-.041.908-.19 1.4-.314 1.727a2.884 2.884 0 01-.682 1.07 2.813 2.813 0 01-1.047.695c-.321.128-.804.28-1.692.32-.961.045-1.25.055-3.683.055s-2.721-.01-3.682-.054c-.888-.042-1.37-.194-1.692-.321a2.816 2.816 0 01-1.048-.696 2.89 2.89 0 01-.682-1.07c-.125-.327-.273-.82-.314-1.727-.043-.98-.052-1.275-.052-3.76s.009-2.778.052-3.758c.041-.908.19-1.4.314-1.728a2.89 2.89 0 01.682-1.07 2.823 2.823 0 011.048-.696c.321-.128.804-.28 1.692-.321.84-.039 1.167-.05 2.865-.053v.003zm5.682 1.545c-.604 0-1.094.5-1.094 1.116 0 .616.49 1.116 1.094 1.116.603 0 1.093-.5 1.093-1.116 0-.617-.49-1.117-1.093-1.117zM9.113 4.526c-2.584 0-4.68 2.14-4.68 4.779s2.096 4.777 4.68 4.777c2.585 0 4.68-2.139 4.68-4.777 0-2.64-2.095-4.779-4.68-4.779zm0 1.677c1.678 0 3.038 1.389 3.038 3.102 0 1.713-1.36 3.101-3.038 3.101-1.677 0-3.037-1.389-3.037-3.101 0-1.713 1.36-3.102 3.037-3.102z" fill="#1C1D32"/></svg>