<svg xmlns="http://www.w3.org/2000/svg" width="256" height="256" viewBox="0 0 256 256"><path d="M81.235 230.411c95.12 0 147.148-78.809 147.148-147.148 0-2.238 0-4.467-.15-6.686a105.189 105.189 0 0025.8-26.77 103.194 103.194 0 01-29.705 8.137 51.89 51.89 0 0022.737-28.605 103.617 103.617 0 01-32.84 12.553c-19.586-20.827-52.347-21.832-73.173-2.246A51.766 51.766 0 00126.09 89.06 146.83 146.83 0 0119.508 35.025c-13.727 23.63-6.716 53.862 16.012 69.037a51.342 51.342 0 01-23.473-6.473v.655c.005 24.62 17.36 45.821 41.49 50.698a51.652 51.652 0 01-23.352.887c6.775 21.068 26.19 35.5 48.316 35.915a103.78 103.78 0 01-64.227 22.182 105.146 105.146 0 01-12.31-.747 146.422 146.422 0 0079.271 23.19" fill="#1da1f2"/></svg>