<svg width="22" height="18" viewBox="0 0 22 18" fill="none" xmlns="http://www.w3.org/2000/svg">
<path d="M3.85536 6.06809L2.17586 7.29359L0.651469 4.864L5.95654 0.932487L5.95654 0.932493L5.95751 0.931759C6.59679 0.445872 7.42798 0.315924 8.1824 0.584067C8.93844 0.852863 9.50737 1.48215 9.70395 2.26836L11.8034 10.665L11.8053 10.6724L11.8082 10.6794C11.8721 10.8317 12.0028 10.873 12.0714 10.8835L12.0717 10.8835C12.1447 10.8946 12.2929 10.8927 12.3995 10.7462L15.0674 7.08076C15.0674 7.08076 15.0674 7.08075 15.0674 7.08075C15.2843 6.78289 15.3219 6.40355 15.1684 6.06816L15.1684 6.06814C15.0147 5.73271 14.7033 5.51587 14.3374 5.4903L12.0489 5.33034L12.2497 4.70269C12.2497 4.70264 12.2498 4.70258 12.2498 4.70253C12.2632 4.6609 12.5948 3.64106 13.3578 2.57471L13.3578 2.5747C14.3976 1.12101 15.7408 0.2779 17.2403 0.122807C18.2148 0.0222277 19.0987 0.255717 19.801 0.793561C20.4793 1.31319 20.8107 1.96441 20.9477 2.30607L21.0405 2.26887L20.9477 2.30607C21.2728 3.11742 21.3566 4.03504 21.1875 4.96019L21.1875 4.96021C21.0315 5.81426 20.6664 6.65478 20.1313 7.39L13.5716 16.4019C12.8712 17.364 11.8152 17.8998 10.6708 17.9C10.4839 17.9 10.2947 17.8856 10.1039 17.8566C8.74597 17.6495 7.6665 16.7443 7.21497 15.4321L7.12041 15.4647L7.21496 15.4321L4.00886 6.11633L3.96478 5.98824L3.85536 6.06809ZM4.47688 4.34392L8.17623 15.0928L8.17623 15.0928C8.50053 16.0348 9.27836 16.688 10.2556 16.837C11.2325 16.9859 12.167 16.5939 12.7522 15.7902L12.7522 15.7902L19.3119 6.77811C20.2346 5.51058 20.5064 3.94647 20.0044 2.69384L20.0044 2.69382C19.9223 2.48898 19.7125 2.05679 19.2947 1.6982C18.8738 1.33701 18.2469 1.05518 17.3436 1.14859C15.2433 1.36554 14.0523 3.21314 13.5378 4.26296L13.4724 4.39636L13.6206 4.40672L14.4074 4.46172L14.4075 4.46172C15.1496 4.51349 15.7786 4.95094 16.0917 5.63414C16.4049 6.31743 16.3284 7.08609 15.887 7.69248L13.2188 11.358C12.9183 11.7709 12.4207 11.9793 11.92 11.903C11.4192 11.8266 11.0043 11.479 10.8376 10.9945L10.8376 10.9944L10.8303 10.9731L8.71705 2.52137L8.71705 2.52135C8.60305 2.06567 8.28496 1.71322 7.84527 1.55699C7.40564 1.40056 6.93838 1.47408 6.56663 1.75794L6.56094 1.76222L6.56037 1.76265L2.09626 5.07087L2.02189 5.12598L2.0711 5.20437L2.39935 5.72732L2.45636 5.81815L2.54298 5.75494L4.47688 4.34392Z" fill="white" stroke="black" stroke-width="0.2"/>
</svg>
