<svg width="20" height="19" viewBox="0 0 20 19" fill="none" xmlns="http://www.w3.org/2000/svg">
<path d="M5.77791 0.265634C7.1035 0.184525 8.46724 0.146619 9.94666 0.150238L9.94735 0.150236C11.4241 0.147053 12.7871 0.184527 14.1127 0.265633C15.3018 0.338489 16.3835 0.75187 17.2434 1.45791L17.3386 1.34198L17.2434 1.45791C18.0714 2.1376 18.6389 3.05782 18.9282 4.19929C19.1812 5.19775 19.1953 6.18007 19.2084 7.14889C19.2179 7.8424 19.2278 8.66362 19.2297 9.49857V9.50138C19.2278 10.3363 19.2179 11.1575 19.2084 11.851C19.1953 12.8199 19.1814 13.802 18.9282 14.8006L19.0736 14.8375L18.9282 14.8007C18.6389 15.9421 18.0714 16.8623 17.2434 17.542L17.3386 17.658L17.2434 17.542C16.3835 18.2481 15.3018 18.6615 14.1127 18.7343C12.8432 18.8121 11.5388 18.85 10.1313 18.85C10.0688 18.85 10.0066 18.85 9.94412 18.8497L9.94306 18.8497C8.4668 18.8533 7.10335 18.8156 5.77778 18.7343C4.58861 18.6615 3.50698 18.2481 2.64705 17.542C1.81922 16.8623 1.25153 15.9421 0.962215 14.8007C0.709228 13.8022 0.695166 12.82 0.682035 11.8511L0.682035 11.851C0.672537 11.1577 0.662758 10.3366 0.660743 9.50171C0.662758 8.66338 0.672537 7.84228 0.682035 7.14891L0.682035 7.14889C0.695166 6.18007 0.709224 5.19791 0.962213 4.19929C1.25152 3.05783 1.81922 2.13761 2.64705 1.45791C3.50698 0.751871 4.5886 0.33849 5.77791 0.265634ZM5.77791 0.265634L5.76875 0.115914L5.77791 0.265634ZM9.94344 17.6653C11.4012 17.6688 12.7402 17.6318 14.0415 17.5521C14.9914 17.494 15.8211 17.1827 16.5022 16.6235L16.407 16.5076L16.5022 16.6235C17.135 16.1039 17.5671 15.3892 17.7906 14.5073C18.0098 13.6425 18.0224 12.7176 18.0342 11.8436L18.0343 11.8348C18.0437 11.1457 18.0535 10.3289 18.0555 9.50034L18.0555 9.49961C18.0535 8.67089 18.0437 7.85424 18.0343 7.16511L18.0342 7.15642C18.0224 6.28237 18.0098 5.35746 17.7906 4.49249L17.6452 4.52933L17.7906 4.49248C17.5671 3.61058 17.135 2.89593 16.5022 2.3763L16.5022 2.37628C15.8211 1.81723 14.9914 1.50596 14.0415 1.44782M9.94344 17.6653C8.48972 17.669 7.15021 17.6318 5.84899 17.552C4.89908 17.4938 4.06936 17.1826 3.38829 16.6235L3.38827 16.6235C2.75549 16.1039 2.32331 15.3892 2.09982 14.5073C1.88065 13.6425 1.8681 12.7176 1.85623 11.8435L1.85611 11.8348C1.84675 11.1451 1.83695 10.3278 1.83494 9.50208L1.83493 9.50135C1.83695 8.67205 1.84675 7.85482 1.85611 7.16511L1.85623 7.15649C1.8681 6.28228 1.88065 5.35748 2.09982 4.49249L2.09982 4.49248C2.32331 3.61058 2.75549 2.89593 3.38827 2.3763L3.38829 2.37628C4.06936 1.81722 4.89908 1.50595 5.84899 1.44782M9.94344 17.6653C9.94332 17.6653 9.94319 17.6653 9.94307 17.6653L9.94343 17.5153L9.94344 17.6653ZM5.84899 1.44782L5.85815 1.59754M5.84899 1.44782L5.85815 1.59754M5.84899 1.44782C7.15025 1.36803 8.48946 1.33099 9.94691 1.33447M5.85815 1.59754C4.93678 1.65393 4.13792 1.95501 3.48346 2.49223C2.87852 2.989 2.46189 3.67437 2.24522 4.52933C2.03043 5.37705 2.01805 6.28696 2.0061 7.16715C1.99674 7.85672 1.98695 8.67327 1.98494 9.50171L5.85815 1.59754ZM9.94691 1.33447C11.4011 1.33128 12.7402 1.36803 14.0415 1.44782M9.94691 1.33447C9.94702 1.33447 9.94713 1.33447 9.94724 1.33447L9.94688 1.48447M9.94691 1.33447C9.94679 1.33447 9.94667 1.33447 9.94655 1.33447L9.94688 1.48447M14.0415 1.44782L14.0323 1.59754M14.0415 1.44782C14.0415 1.44782 14.0415 1.44782 14.0415 1.44782L14.0323 1.59754M14.0323 1.59754C12.7345 1.51796 11.3985 1.48128 9.94688 1.48447M14.0323 1.59754C14.9537 1.65393 15.7525 1.95501 16.407 2.49223L9.94688 1.48447M9.9083 13.9887C7.452 13.9887 5.45144 11.9759 5.45144 9.49997C5.45144 7.02404 7.452 5.01129 9.9083 5.01129C12.3647 5.01129 14.3652 7.02404 14.3652 9.49997C14.3652 11.9759 12.3647 13.9887 9.9083 13.9887ZM9.9083 6.19567C8.0972 6.19567 6.62564 7.67889 6.62564 9.49997C6.62564 11.3211 8.0972 12.8043 9.9083 12.8043C11.7195 12.8043 13.191 11.3211 13.191 9.49997C13.191 7.67889 11.7195 6.19567 9.9083 6.19567ZM14.0755 4.49019C14.0755 3.95716 14.5044 3.52691 15.0311 3.52691C15.558 3.52691 15.9868 3.95715 15.9868 4.49019C15.9868 5.02324 15.558 5.45348 15.0311 5.45348C14.5044 5.45348 14.0755 5.02323 14.0755 4.49019Z" fill="white" stroke="black" stroke-width="0.3"/>
</svg>
