<svg width="13" height="13" viewBox="0 0 13 13" fill="none" xmlns="http://www.w3.org/2000/svg">
<path d="M12.9435 7.60335V12.4912H10.2469V7.96541C10.2469 6.87922 9.88738 5.97406 8.80876 5.97406C8.08968 5.97406 7.55036 6.51715 7.37059 7.06025C7.37059 7.24128 7.19082 7.42231 7.19082 7.78438V12.4912H4.49426C4.49426 12.4912 4.49426 4.88786 4.49426 4.16374H7.19082V5.24993C7.55036 4.70683 8.26945 3.80167 9.70761 3.80167C11.5053 3.80167 12.9435 5.0689 12.9435 7.60335ZM1.61794 0C0.719082 0 0 0.543096 0 1.44826C0 2.17238 0.539312 2.89651 1.61794 2.89651C2.51679 2.89651 3.23587 2.17238 3.23587 1.44826C3.0561 0.543096 2.51679 0 1.61794 0ZM0.17977 12.3102H2.87633V3.98271H0.17977V12.3102Z" fill="#1C1D32"/>
</svg>
