<svg version="1.0" xmlns="http://www.w3.org/2000/svg" width="693.333" height="693.333" viewBox="0 0 520 520"><path d="M0 260v260h520V0H0v260zm183-106.6c25.6 6.8 40.9 24.1 42.7 48.3 1.9 25.9-11.5 44-38.9 52.8l-6.7 2.1 9.6 2.2c30.1 6.8 46 26.2 44 53.5-2 27.5-17.5 46.2-45.2 54.4-5.3 1.5-12.3 1.8-63.2 2.1l-57.3.3V150.9l54.3.4c47.4.3 55 .6 60.7 2.1zM309 196v45h110v-90h33v218h-33v-98H309v98h-33V151h33v45z"/><path d="M101 212v32h31.9c28.3 0 32.6-.2 37.9-1.9 8.4-2.6 12.6-6.1 16.4-13.9 3.1-6.2 3.3-7.3 3.3-17.2 0-9.7-.2-11-3-16.5-3.5-7.1-9.6-11.7-17.5-13.4-3.1-.7-17.8-1.1-37-1.1h-32v32zm0 93.9V340h34.9c32.6 0 35.3-.1 41.6-2.1 5.5-1.7 7.8-3.1 12-7.3 7-7 9-12.8 9-26.2 0-9.2-.3-10.5-3-16-2.2-4.3-4.3-6.8-7.9-9.1-9.4-6.4-11.4-6.7-50.8-7.1l-35.8-.3v34z"/></svg>