<?xml version="1.0" standalone="no"?>
<!DOCTYPE svg PUBLIC "-//W3C//DTD SVG 20010904//EN"
 "http://www.w3.org/TR/2001/REC-SVG-20010904/DTD/svg10.dtd">
<svg version="1.0" xmlns="http://www.w3.org/2000/svg"
 width="520.000000pt" height="520.000000pt" viewBox="0 0 520.000000 520.000000"
 preserveAspectRatio="xMidYMid meet">
<metadata>
Created by potrace 1.14, written by Peter Selinger 2001-2017
</metadata>
<g transform="translate(0.000000,520.000000) scale(0.100000,-0.100000)"
fill="#000000" stroke="none">
<path d="M0 2600 l0 -2600 2600 0 2600 0 0 2600 0 2600 -2600 0 -2600 0 0
-2600z m1830 1066 c256 -68 409 -241 427 -483 19 -259 -115 -440 -389 -528
l-67 -21 96 -22 c301 -68 460 -262 440 -535 -20 -275 -175 -462 -452 -544 -53
-15 -123 -18 -632 -21 l-573 -3 0 1091 0 1091 543 -4 c474 -3 550 -6 607 -21z
m1260 -426 l0 -450 550 0 550 0 0 450 0 450 165 0 165 0 0 -1090 0 -1090 -165
0 -165 0 0 490 0 490 -550 0 -550 0 0 -490 0 -490 -165 0 -165 0 0 1090 0
1090 165 0 165 0 0 -450z"/>
<path d="M1010 3080 l0 -320 319 0 c283 0 326 2 379 19 84 26 126 61 164 139
31 62 33 73 33 172 0 97 -2 110 -30 165 -35 71 -96 117 -175 134 -31 7 -178
11 -370 11 l-320 0 0 -320z"/>
<path d="M1010 2141 l0 -341 349 0 c326 0 353 1 416 21 55 17 78 31 120 73 70
70 90 128 90 262 0 92 -3 105 -30 160 -22 43 -43 68 -79 91 -94 64 -114 67
-508 71 l-358 3 0 -340z"/>
</g>
</svg>
