<svg width="160" height="15" viewBox="0 0 160 15" fill="none" xmlns="http://www.w3.org/2000/svg"><path d="M.517.372H5.24c.595 0 1.13.062 1.642.207.514.144.945.351 1.294.62.37.269.657.62.862 1.054.205.434.308.93.308 1.51 0 .785-.226 1.426-.657 1.922-.431.496-1.006.868-1.683 1.095v.042c.41.02.8.124 1.15.31a3.2 3.2 0 01.923.723c.267.31.472.662.616 1.055.144.392.226.826.226 1.302 0 .62-.123 1.158-.37 1.633a3.328 3.328 0 01-1.026 1.178c-.431.331-.945.558-1.52.724a6.697 6.697 0 01-1.868.248H.517V.372zm1.848 5.664H4.87c.349 0 .677-.041.985-.103.308-.062.575-.186.8-.352.226-.165.411-.372.555-.64.144-.249.205-.58.205-.951 0-.538-.164-1.013-.513-1.406-.35-.393-.883-.6-1.622-.6H2.365v4.052zm0 6.367h2.71c.287 0 .595-.02.924-.083.328-.062.657-.165.944-.351.287-.165.534-.413.74-.703.204-.29.307-.682.307-1.178 0-.806-.267-1.427-.78-1.82-.534-.413-1.232-.599-2.135-.599h-2.71v4.734zM16.53.372h1.848V12.3h6.22v1.736H16.53V.372zm19.811 0h-1.663l-5.974 13.643h2.135L35.397 2.75h.04l4.558 11.266h2.156L36.34.372zm20.96 2.935a3.834 3.834 0 00-1.457-1.157 4.364 4.364 0 00-1.828-.414c-.76 0-1.457.145-2.073.435a4.723 4.723 0 00-1.58 1.178 5.724 5.724 0 00-1.027 1.757 6.34 6.34 0 00-.37 2.17c0 .724.123 1.406.35 2.047a4.88 4.88 0 001.005 1.695c.431.496.965.868 1.581 1.158.616.29 1.334.434 2.135.434.78 0 1.458-.166 2.053-.476a4.443 4.443 0 001.499-1.343l1.56 1.178a5.43 5.43 0 01-.534.6c-.246.268-.595.537-1.006.785a7.463 7.463 0 01-1.519.703c-.595.207-1.273.29-2.053.29-1.068 0-2.032-.207-2.895-.62-.862-.414-1.6-.952-2.196-1.613-.616-.662-1.068-1.427-1.396-2.274a6.99 6.99 0 01-.472-2.564c0-1.054.164-2.025.513-2.914.349-.89.821-1.675 1.437-2.316A6.31 6.31 0 0151.266.538C52.128.186 53.093 0 54.14 0a6.83 6.83 0 012.627.517c.863.351 1.56.889 2.115 1.592l-1.58 1.198zM65.287.372h1.848v5.892h.143L73.273.35h2.566L69.29 6.677l7 7.36h-2.689l-6.323-6.823h-.143v6.822h-1.848V.372zm25.641 0h1.848v5.664h7.02V.372h1.849v13.664h-1.848V7.793h-7.021v6.243h-1.848V.372zm24.061 0h-1.663l-5.995 13.643h2.156l4.557-11.266h.041l4.558 11.266h2.135L114.989.372zm9.32 0h1.909l2.997 10.915h.041L132.438.372h2.115l3.182 10.915h.041L140.773.372h1.91l-3.942 13.664h-1.95l-3.285-11.142h-.041l-3.264 11.142h-1.951L124.309.372zm24.101 0h1.848v5.892h.143L156.396.35h2.566l-6.549 6.326 7.001 7.36h-2.69l-6.323-6.823h-.143v6.822h-1.848V.372z" fill="#fff"/></svg>